<svg id="Layer_1" data-name="Layer 1" xmlns="http://www.w3.org/2000/svg" viewBox="0 0 15.67 15.67"><defs><style>.cls-1{fill:#c9ab81;}</style></defs><title>favicon</title><path class="cls-1" d="M8,.17.17,8,8,15.83,15.83,8ZM.54,8,8,.54,15.46,8,8,15.46Z" transform="translate(-0.17 -0.17)"/><path class="cls-1" d="M8,1.12,1.12,8,8,14.88,14.88,8ZM8,13.74,7.29,13l0-.43L7.39,12l0-.23H8.49l0,.22.09.54L8.7,13ZM7.73,8.83c.09.39-.26.68-.25,1.06C7.25,9.46,7.58,9.17,7.73,8.83Zm.44-.31c.38.67-.38,1.19-.24,1.84C7.41,9.67,8.2,9.15,8.17,8.52Zm.14,1.77c-.21-.46.12-.76.26-1.12C8.68,9.59,8.28,9.89,8.31,10.29Zm.45-4.35H7.24L6.15,10.79,3.4,8,8,3.4,12.6,8,9.82,10.73Zm1.17,5.31L13.23,8,8,2.77,2.77,8,6,11.31,6,11.69,2.26,8,8,2.26,13.74,8,10,11.71Z" transform="translate(-0.17 -0.17)"/></svg>