<svg id="Layer_1" data-name="Layer 1" xmlns="http://www.w3.org/2000/svg" viewBox="0 0 14.04 14"><defs><style>.cls-1{fill:#c9ab81;}</style></defs><title>favicon</title><path class="cls-1" d="M15,7.55V8a7,7,0,0,1-1.84,4.79A7.1,7.1,0,0,1,8,15a6.86,6.86,0,0,1-2.51-.48,7.12,7.12,0,0,1-2.2-1.36,6.77,6.77,0,0,1-1.82-2.7A7.11,7.11,0,0,1,1,8,6.79,6.79,0,0,1,2.4,3.79a6.8,6.8,0,0,1,2.46-2A6.87,6.87,0,0,1,8,1a6.88,6.88,0,0,1,4.91,2,4.05,4.05,0,0,1,.9,1.09L12.71,5a1.44,1.44,0,0,1-.32-.33A5.24,5.24,0,0,0,8,2.34H7.67l0,6.13,0,5.17H8a5.41,5.41,0,0,0,1.87-.32,5.44,5.44,0,0,0,3.29-3,5.46,5.46,0,0,0,.45-1.44H9.23V7.55H15Z" transform="translate(-0.98 -1)"/></svg>